<?xml version="1.0" encoding="utf-8"?>
<svg version="1.1" id="Camada_1" xmlns="http://www.w3.org/2000/svg" xmlns:xlink="http://www.w3.org/1999/xlink" x="0px" y="0px"
	 viewBox="0 0 512 512" style="enable-background:new 0 0 512 512;" xml:space="preserve">
<path d="M187.9,156.9c-5.8-14.5-13.3-29.2-26.4-40.1c-5.3-4.4-6.6-9.5-4.9-15c1.7-5.5,7-7.6,12.5-7.9c1.2-0.1,2.3-0.1,5.2-0.4
	c-6.4-6.8-11.8-13.1-17.7-18.9c-6.5-6.2-9-13.9-2.9-22c2.3-3.1,6.6-6.1,10.2-6.6c14.2-1.6,28,1.2,41.1,6.2
	c15.7,6.1,29.1,15.7,39.8,29.6c2.9-8.7,5.8-16.9,8.5-25.2c6.1-18.1,14.1-35.3,25.4-50.8c6.2-8.5,21-7.5,26,1.9
	c8.3,16.1,13.7,32.9,14.8,51.1c0.5,8.2,1.2,16.2,1.8,24.5c7-3.1,13.9-6.8,21.4-9.4c18.5-6.2,37.4-6.7,56.4-1.7
	c6.5,1.7,10.7,6.1,11.7,12.7c1.1,7-1.6,12.4-7.8,16.6c-10.8,7.3-21.3,15.3-32.8,23.7c6.5,1.9,11.3,3.1,16,4.8
	c4.6,1.7,7.3,5,7.9,10.1c0.6,5.2-1.6,9-6,11.3c-12.7,6.6-22.7,16.2-31,27.5c5.3,5.6,10.6,11.1,15.6,16.8
	c14.8,16.9,24,36.7,28.6,58.5c3.7,18,2.8,36.2,0.2,54.3c-2.3,16.2-3,32.7-5,48.9c-2.8,22-3.8,44.2-13.1,65
	c-9.4,21-21.9,39.3-39.7,54.4c-19.5,16.6-41.6,27.2-66.5,32.3c-17.8,3.6-35.8,3.5-53.6,0.4c-21.5-3.8-41.3-11.9-59.2-24.5
	c-29.8-21-48.5-49.4-57.3-84.5c-5.2-20.9-4.6-41.9-1.4-63.1c1.8-12.3,2.2-24.8,3.8-37.1c3-21.1,2.8-43,9.7-63.4
	c8.2-23.9,21.1-44.9,41.7-60.4C169.3,169.7,178.3,163.7,187.9,156.9L187.9,156.9z M115.5,366.1c1.2,9.7,1.8,18.7,3.5,27.5
	c6,31.1,22.1,56.6,46.9,76.1c31.2,24.6,67.1,33.5,106.2,26.7c42.5-7.3,73.5-31,94.3-68.5c14.3-25.7,14.8-54.6,18.1-82.8
	c1.4-12.4,2.3-24.9,4-37.3c2.4-17.7,3.8-35.3-0.5-52.8c-10.2-42.1-35.8-71.1-76.3-86.2c-10.6-4-22.2-5-33.5-6.7
	c-15.5-2.3-30.9-4.6-46.9-2.6c-27.3,3.2-50.5,14.5-70.1,33.4c-24.3,23.3-34,53.1-36.4,85.9c-1,12.5-2.3,24.9-3.6,37.3
	C119.3,333,117.3,350,115.5,366.1L115.5,366.1z M291,12.7c-3.8,5.9-8.4,10.9-10.8,16.8c-7.7,18.9-14.8,37.9-21.9,57
	c-2.4,6.4-3,12.7,0.7,19.7c3.5,6.6,5,14.3,7.1,21.6c0.8,3.2,0.8,6.7,1.2,10.1c4.3-9.5,4.9-19.9,12-27.6c0.6,0.1,1.1,0.2,1.7,0.5
	c1,8.4,2,16.7,2.8,22.8c5.9-9.5,12.7-20.4,19.5-31.4c1.3-2.3,3-4.9,3-7.3c-0.5-15.5-0.8-31-2.4-46.4C302.4,36,297.9,24.3,291,12.7
	L291,12.7z M397.2,87.4c-0.4-0.6-0.6-1.2-1-1.7c-22.8-4.9-44.7-3.8-64.9,10c-19.8,13.6-31.1,32.3-36,55.4c6.7,1.6,9.6-3,13.1-5.9
	c11.3-9.6,23.9-16.3,38.6-19c2.8-0.5,6.1-1.4,7.8-3.5c10.1-12.4,22.6-21.9,36-30.2C393,91,395.1,89.1,397.2,87.4L397.2,87.4z
	 M252.7,146.4c3.7-26-18-62.1-41.9-75.8c-16.6-9.5-40.7-13.9-45.8-9.3c7.1,8.3,14.2,16.6,21.4,24.8c3,3.5,5.8,8.5,9.6,9.6
	c18,5.5,32.6,15.3,43.3,30.9C243.4,133,247.6,139.2,252.7,146.4L252.7,146.4z M203.9,113.9c3.5,11.3,6.7,22.1,10.1,32.8
	c0.4,1,2,2.3,2.9,2.2c5.8-0.8,11.4-1.9,17.8-3.1C227.4,132.1,217.5,121.6,203.9,113.9L203.9,113.9z M374.7,140.8
	c-1.3-0.4-3.2-1-5.2-1.1c-4.6-0.4-9.7-2-13,3c-4.7,7.2-9,14.7-13.6,21.9c-2,3.1-1.1,4.9,1.2,5.6
	C354.7,160.1,364.8,150.4,374.7,140.8L374.7,140.8z M175.4,108.5c7.2,10.5,14.3,20.8,21.4,31.1c-2.6-8.3-6.4-16.1-9.4-24.2
	C185.2,109.2,181.5,106.4,175.4,108.5L175.4,108.5z M337.4,144.9c-0.4-0.4-0.7-0.8-1.2-1.2c-6.5,4.1-12.9,8.2-20.1,12.7
	c5,1.9,8.7,3.2,12.3,4.7C331.6,155.4,334.5,150.2,337.4,144.9z"/>
</svg>
